<svg xmlns="http://www.w3.org/2000/svg" xmlns:xlink="http://www.w3.org/1999/xlink" width="261" height="119" viewBox="0 0 261 119"><defs><filter id="a" x="0" y="0" width="261" height="119" filterUnits="userSpaceOnUse"><feOffset dy="12" input="SourceAlpha"/><feGaussianBlur stdDeviation="11.5" result="b"/><feFlood flood-color="#eea500" flood-opacity="0.502"/><feComposite operator="in" in2="b"/></filter><filter id="c" x="0" y="0" width="261" height="119" filterUnits="userSpaceOnUse"><feOffset input="SourceAlpha"/><feGaussianBlur stdDeviation="6" result="d"/><feFlood flood-color="#eea500" flood-opacity="0.4" result="e"/><feComposite operator="out" in="SourceGraphic" in2="d"/><feComposite operator="in" in="e"/><feComposite operator="in" in2="SourceGraphic"/></filter></defs><g transform="translate(34.5 22.5)"><g data-type="innerShadowGroup"><g transform="matrix(1, 0, 0, 1, -34.5, -22.5)" filter="url(#a)"><g transform="translate(34.5 22.5)" fill="rgba(155,108,0,0.4)"><path d="M 181.8916778564453 49.5 L 0.5 49.5 L 0.5 13.60179615020752 L 10.14963722229004 0.5 L 191.5 0.5 L 191.5 37.32644653320312 L 181.8916778564453 49.5 Z" stroke="none"/><path d="M 10.40232849121094 1 L 1 13.76602554321289 L 1 49 L 181.6493530273438 49 L 191 37.15291595458984 L 191 1 L 10.40232849121094 1 M 9.896896362304688 0 L 192 0 L 192 37.5 L 182.1340179443359 50 L 0 50 L 0 13.43752670288086 L 9.896896362304688 0 Z" stroke="none" fill="#ffdb89"/></g></g><g fill="rgba(155,108,0,0.4)"><path d="M 181.8916778564453 49.5 L 0.5 49.5 L 0.5 13.60179615020752 L 10.14963722229004 0.5 L 191.5 0.5 L 191.5 37.32644653320312 L 181.8916778564453 49.5 Z" stroke="none"/><path d="M 10.40232849121094 1 L 1 13.76602554321289 L 1 49 L 181.6493530273438 49 L 191 37.15291595458984 L 191 1 L 10.40232849121094 1 M 9.896896362304688 0 L 192 0 L 192 37.5 L 182.1340179443359 50 L 0 50 L 0 13.43752670288086 L 9.896896362304688 0 Z" stroke="none"/></g><g transform="matrix(1, 0, 0, 1, -34.5, -22.5)" filter="url(#c)"><g transform="translate(34.5 22.5)" fill="#fff"><path d="M 181.8916778564453 49.5 L 0.5 49.5 L 0.5 13.60179615020752 L 10.14963722229004 0.5 L 191.5 0.5 L 191.5 37.32644653320312 L 181.8916778564453 49.5 Z" stroke="none"/><path d="M 10.40232849121094 1 L 1 13.76602554321289 L 1 49 L 181.6493530273438 49 L 191 37.15291595458984 L 191 1 L 10.40232849121094 1 M 9.896896362304688 0 L 192 0 L 192 37.5 L 182.1340179443359 50 L 0 50 L 0 13.43752670288086 L 9.896896362304688 0 Z" stroke="none"/></g></g><g fill="none"><path d="M 181.8916778564453 49.5 L 0.5 49.5 L 0.5 13.60179615020752 L 10.14963722229004 0.5 L 191.5 0.5 L 191.5 37.32644653320312 L 181.8916778564453 49.5 Z" stroke="none"/><path d="M 10.40232849121094 1 L 1 13.76602554321289 L 1 49 L 181.6493530273438 49 L 191 37.15291595458984 L 191 1 L 10.40232849121094 1 M 9.896896362304688 0 L 192 0 L 192 37.5 L 182.1340179443359 50 L 0 50 L 0 13.43752670288086 L 9.896896362304688 0 Z" stroke="none" fill="#ffdb89"/></g></g><text transform="translate(96.254 31.723)" fill="#fff" font-size="20" font-family="SegoeUI-Bold, Segoe UI" font-weight="700" letter-spacing="0.2em"><tspan x="-32.499" y="0">MINT</tspan></text></g></svg>